<svg width="37" height="33" viewBox="0 0 37 33" fill="none" xmlns="http://www.w3.org/2000/svg">
<path d="M18.4999 14.73C16.8999 11.63 12.5599 5.84001 8.51989 2.99001C4.64989 0.260009 3.16989 0.730009 2.20989 1.17001C1.08989 1.68001 0.889893 3.40001 0.889893 4.41001C0.889893 5.42001 1.43989 12.71 1.80989 13.92C3.00989 17.94 7.25989 19.3 11.1799 18.86C11.3799 18.83 11.5799 18.8 11.7899 18.78C11.5899 18.81 11.3799 18.84 11.1799 18.86C5.43989 19.71 0.329893 21.8 7.02989 29.25C14.3899 36.87 17.1199 27.62 18.5199 22.92C19.9199 27.61 21.5299 36.53 29.8699 29.25C36.1399 22.92 31.5899 19.71 25.8499 18.86C25.6499 18.84 25.4399 18.81 25.2399 18.78C25.4499 18.81 25.6499 18.83 25.8499 18.86C29.7699 19.3 34.0299 17.94 35.2199 13.92C35.5799 12.7 36.1399 5.42001 36.1399 4.41001C36.1399 3.40001 35.9399 1.68001 34.8199 1.17001C33.8499 0.730009 32.3799 0.260009 28.5099 2.99001C24.4399 5.85001 20.0999 11.63 18.4999 14.73Z" fill="black"/>
</svg>
